<?xml version="1.0" standalone="no"?>
<!DOCTYPE svg PUBLIC "-//W3C//DTD SVG 20010904//EN"
 "http://www.w3.org/TR/2001/REC-SVG-20010904/DTD/svg10.dtd">
<svg version="1.0" xmlns="http://www.w3.org/2000/svg"
 width="900.000000pt" height="900.000000pt" viewBox="0 0 900.000000 900.000000"
 preserveAspectRatio="xMidYMid meet">
<metadata>
Created by potrace 1.11, written by Peter Selinger 2001-2013
</metadata>
<g transform="translate(0.000000,900.000000) scale(0.100000,-0.100000)"
fill="#000000" stroke="none">
<path d="M1529 8985 c-505 -79 -955 -368 -1234 -791 -120 -181 -217 -415 -267
-644 l-23 -105 0 -2945 0 -2945 23 -105 c98 -448 327 -813 682 -1087 202 -155
465 -275 740 -335 l105 -23 2945 0 2945 0 105 23 c568 125 1012 466 1265 971
64 128 124 299 157 451 l23 105 0 2945 0 2945 -23 105 c-125 568 -466 1012
-971 1265 -125 62 -295 122 -446 157 l-100 23 -2920 1 c-2401 2 -2935 0 -3006
-11z m1589 -2660 c104 -5 260 -35 372 -70 365 -114 623 -364 707 -683 44 -169
43 -392 -3 -577 -21 -83 -103 -246 -164 -327 -111 -146 -233 -250 -621 -525
l-251 -178 541 -3 541 -2 0 -450 0 -450 -1290 0 -1290 0 0 418 0 418 658 526
c674 539 719 579 757 676 38 94 -4 229 -84 276 -54 31 -173 34 -239 6 -98 -42
-170 -149 -194 -288 l-12 -72 -30 5 c-17 3 -191 23 -386 45 -549 62 -591 67
-598 74 -10 11 36 241 67 329 102 294 334 558 616 699 212 107 540 175 770
161 22 -1 82 -5 133 -8z m4032 -970 l5 -890 213 -3 212 -2 0 -420 0 -420 -207
-2 -208 -3 -5 -275 -5 -275 -485 0 -485 0 -3 277 -2 278 -763 2 -762 3 -3 436
-2 435 216 315 c119 173 295 429 392 569 96 140 210 305 252 365 42 61 136
196 209 302 72 105 137 194 144 196 6 3 298 5 647 4 l635 -2 5 -890z"/>
<path d="M5925 4876 c-141 -212 -258 -392 -261 -401 -6 -14 21 -15 262 -13
l269 3 3 398 c1 271 -1 397 -8 397 -6 0 -125 -173 -265 -384z"/>
</g>
</svg>
